<?xml version="1.0" encoding="utf-8"?>
<!-- Generator: Adobe Illustrator 18.0.0, SVG Export Plug-In . SVG Version: 6.00 Build 0)  -->
<!DOCTYPE svg PUBLIC "-//W3C//DTD SVG 1.1//EN" "http://www.w3.org/Graphics/SVG/1.1/DTD/svg11.dtd">
<svg version="1.1" id="Layer_1" xmlns="http://www.w3.org/2000/svg" xmlns:xlink="http://www.w3.org/1999/xlink" x="0px" y="0px"
	 viewBox="0 0 400 400" enable-background="new 0 0 400 400" xml:space="preserve">
<circle fill="#FFD05B" cx="200.5" cy="200.5" r="198.2"/>
<path fill="#F5E8E1" d="M118.4,198.4c0,2.6-2.8,4.7-6.2,4.7l0,0c-3.4,0-6.2-2.1-6.2-4.7v-27.8c0-2.6,2.8-4.7,6.2-4.7l0,0
	c3.4,0,6.2,2.1,6.2,4.7V198.4z"/>
<path fill="#F5E8E1" d="M118.4,248.2c0,2.6-2.8,4.7-6.2,4.7l0,0c-3.4,0-6.2-2.1-6.2-4.7v-27.8c0-2.6,2.8-4.7,6.2-4.7l0,0
	c3.4,0,6.2,2.1,6.2,4.7V248.2z"/>
<ellipse fill="#E24F41" cx="111.4" cy="208.8" rx="8.6" ry="6.6"/>
<path fill="#65B1A5" d="M98.8,254.6c0,0-0.2-15,11.6-15s14.9,7.1,14.9,16.6c0,0-1.2,3.4-4.2,3.4c-3,0,0.3-6.3-1.9-8
	c-2.2-1.7-4.4,2-4.4,6.4c0,4.5-6.7,3.7-11.4,3.7C98.8,261.6,98.8,259.7,98.8,254.6z"/>
<path fill="#E45347" d="M129.3,181.3c0,2.5-2.6,4.5-5.9,4.5l0,0c-3.3,0-5.9-2-5.9-4.5v-12.4c0-2.5,2.6-4.5,5.9-4.5l0,0
	c3.3,0,5.9,2,5.9,4.5V181.3z"/>
<path fill="#F5E8E1" d="M289,198.4c0,2.6,2.8,4.7,6.2,4.7l0,0c3.4,0,6.2-2.1,6.2-4.7v-27.8c0-2.6-2.8-4.7-6.2-4.7l0,0
	c-3.4,0-6.2,2.1-6.2,4.7V198.4z"/>
<path fill="#F5E8E1" d="M289,248.2c0,2.6,2.8,4.7,6.2,4.7l0,0c3.4,0,6.2-2.1,6.2-4.7v-27.8c0-2.6-2.8-4.7-6.2-4.7l0,0
	c-3.4,0-6.2,2.1-6.2,4.7V248.2z"/>
<ellipse fill="#E24F41" cx="296" cy="208.8" rx="8.6" ry="6.6"/>
<path fill="#65B1A5" d="M308.5,254.6c0,0,0.2-15-11.6-15c-11.9,0-14.9,7.1-14.9,16.6c0,0,1.2,3.4,4.2,3.4c3,0-0.3-6.3,1.9-8
	c2.2-1.7,4.4,2,4.4,6.4c0,4.5,6.7,3.7,11.4,3.7C308.5,261.6,308.5,259.7,308.5,254.6z"/>
<path fill="#E45347" d="M278,181.3c0,2.5,2.6,4.5,5.9,4.5l0,0c3.3,0,5.9-2,5.9-4.5v-12.4c0-2.5-2.6-4.5-5.9-4.5l0,0
	c-3.3,0-5.9,2-5.9,4.5V181.3z"/>
<path fill="#F5E8E1" d="M233.9,247l11.6-0.8l1.3,0.6l9.1-2.3c0.3,0.3,3.2,3.3,6.4,8.4l-19.4,7.2C238.6,252.5,234,247.1,233.9,247z"
	/>
<path fill="#F5E8E1" d="M251.1,325.6l-16.3-10.4c0.1-0.1,2.1-2,4.7-5.2l17.3,9.3C253.7,323.1,251.3,325.4,251.1,325.6z"/>
<path fill="#E24F41" d="M265.8,306c-2.8,5.5-6.2,10.1-9,13.4l-17.3-9.3c2.1-2.6,4.5-6,6.6-9.9L265.8,306z"/>
<path fill="#F5E8E1" d="M250.7,283.5c0-4.7-1.3-9.6-3.2-14.2l21.7-1.9c1.6,4.8,2.6,10.3,2.6,16.2c0,8.2-2.6,15.9-6,22.5l-19.7-5.8
	C248.7,295.2,250.7,289.5,250.7,283.5z"/>
<path fill="#E24F41" d="M242.9,260l19.4-7.2c2.4,3.8,5,8.7,6.9,14.5l-21.7,1.9C246.2,266,244.6,262.9,242.9,260z"/>
<ellipse fill="#E24F41" cx="259.8" cy="283.7" rx="14" ry="9.5"/>
<path fill="#E24F41" d="M243.8,314.9c17.7,0,32,9,32,22.5h-64C211.8,323.9,226.1,314.9,243.8,314.9z"/>
<path fill="#F5E8E1" d="M174.8,247l-11.6-0.8l-1.3,0.6l-9.1-2.3c-0.3,0.3-3.2,3.3-6.4,8.4l19.4,7.2
	C170.1,252.5,174.7,247.1,174.8,247z"/>
<path fill="#F5E8E1" d="M157.7,325.6l16.3-10.4c-0.1-0.1-2.1-2-4.7-5.2l-17.3,9.3C155,323.1,157.4,325.4,157.7,325.6z"/>
<path fill="#E24F41" d="M142.9,306c2.8,5.5,6.2,10.1,9,13.4l17.3-9.3c-2.1-2.6-4.5-6-6.6-9.9L142.9,306z"/>
<path fill="#F5E8E1" d="M158,283.5c0-4.7,1.3-9.6,3.2-14.2l-21.7-1.9c-1.6,4.8-2.6,10.3-2.6,16.2c0,8.2,2.6,15.9,6,22.5l19.7-5.8
	C160,295.2,158,289.5,158,283.5z"/>
<path fill="#E24F41" d="M165.8,260l-19.4-7.2c-2.4,3.8-5,8.7-6.9,14.5l21.7,1.9C162.5,266,164.1,262.9,165.8,260z"/>
<ellipse fill="#E24F41" cx="148.9" cy="283.7" rx="14" ry="9.5"/>
<path fill="#E24F41" d="M164.9,314.9c-17.7,0-32,9-32,22.5h64C197,323.9,182.6,314.9,164.9,314.9z"/>
<path fill="#60AB9A" d="M279,239.2c0,5.6-5.9,10.1-13.2,10.1H141.6c-7.3,0-13.2-4.5-13.2-10.1V170c0-5.6,5.9-10.1,13.2-10.1h124.1
	c7.3,0,13.2,4.5,13.2,10.1V239.2z"/>
<path fill="#E24F41" d="M233.7,147.3c0,6.8-2.5,12.4-5.6,12.4h-53.6c-3.1,0-5.6-5.5-5.6-12.4l0,0c0-6.8,2.5-12.4,5.6-12.4h53.6
	C231.2,134.9,233.7,140.4,233.7,147.3L233.7,147.3z"/>
<g>
	<path fill="none" stroke="#7AA79E" stroke-miterlimit="10" stroke-dasharray="1.9909,1.9909" d="M274.1,236.6
		c0,5.2-5.5,9.4-12.4,9.4H145.6c-6.8,0-12.4-4.2-12.4-9.4v-64.4c0-5.2,5.5-9.4,12.4-9.4h116.2c6.8,0,12.4,4.2,12.4,9.4V236.6z"/>
</g>
<path fill="#F5E8E1" d="M251.1,217.4c0,5.3-5.6,9.6-12.5,9.6h-74.8c-6.9,0-12.5-4.3-12.5-9.6v-28.9c0-5.3,5.6-9.6,12.5-9.6h74.8
	c6.9,0,12.5,4.3,12.5,9.6V217.4z"/>
<path fill="#E24F41" d="M172.2,236.9c0-2.9,3.1-5.3,7-5.3c3.8,0,7,2.4,7,5.3c0,2.9-3.1,5.3-7,5.3
	C175.3,242.2,172.2,239.8,172.2,236.9z"/>
<ellipse fill="#F5E8E1" cx="200.8" cy="236.6" rx="6.6" ry="5"/>
<ellipse fill="#E54F4D" cx="224.8" cy="236.6" rx="7.3" ry="5.6"/>
<ellipse fill="#60AB9A" cx="121" cy="124.3" rx="0" ry="1.7"/>
<ellipse fill="#60AB9A" cx="200" cy="103.8" rx="91.1" ry="33.8"/>
<path fill="#E24F41" d="M115.5,111.2c0,2.7-2.9,5-6.5,5l0,0c-3.6,0-6.5-2.2-6.5-5V89.5c0-2.7,2.9-5,6.5-5l0,0c3.6,0,6.5,2.2,6.5,5
	V111.2z"/>
<path fill="#E24F41" d="M300.5,111.2c0,2.7-2.9,5-6.5,5l0,0c-3.6,0-6.5-2.2-6.5-5V89.5c0-2.7,2.9-5,6.5-5l0,0c3.6,0,6.5,2.2,6.5,5
	V111.2z"/>
<ellipse fill="#FFFFFF" cx="178.5" cy="129.5" rx="5.3" ry="4.1"/>
<ellipse fill="#FFFFFF" cx="191.7" cy="129.5" rx="5.3" ry="4.1"/>
<ellipse fill="#FFFFFF" cx="205.4" cy="129.5" rx="5.3" ry="4.1"/>
<ellipse fill="#FFFFFF" cx="219.1" cy="129.5" rx="5.3" ry="4.1"/>
<ellipse fill="#FFFFFF" cx="232.8" cy="129.5" rx="5.3" ry="4.1"/>
<ellipse fill="#E54E4D" stroke="#FFFFFF" stroke-miterlimit="10" cx="177.4" cy="99.7" rx="16.2" ry="12.4"/>
<path fill="#442825" d="M171.6,99.7c0-2.4,2.6-4.4,5.7-4.4c3.2,0,5.7,2,5.7,4.4c0,2.4-2.6,4.4-5.7,4.4
	C174.2,104.1,171.6,102.1,171.6,99.7z"/>
<ellipse fill="#FBF0EB" cx="181.1" cy="97.7" rx="2.8" ry="2.1"/>
<path fill="#E54E4D" stroke="#FFFFFF" stroke-miterlimit="10" d="M201.7,97c0-10.9,11.6-19.8,25.9-19.8c14.3,0,25.9,8.9,25.9,19.8
	c0,10.9-11.6,19.8-25.9,19.8C213.3,116.8,201.7,108,201.7,97z"/>
<path fill="#442825" d="M218.4,97c0-3.9,4.1-7,9.2-7c5.1,0,9.2,3.2,9.2,7c0,3.9-4.1,7-9.2,7C222.5,104.1,218.4,100.9,218.4,97z"/>
<path fill="#FBF0EB" d="M229.1,93.8c0-1.9,2-3.4,4.4-3.4c2.4,0,4.4,1.5,4.4,3.4c0,1.9-2,3.4-4.4,3.4C231,97.2,229.1,95.7,229.1,93.8
	z"/>
<polygon fill="#F9B54C" points="55.8,335 345.2,335 334.9,345.1 323.6,355 312.1,363.5 299,371.8 287.5,377.9 273.7,384 
	259.9,388.9 246.1,392.7 232,395.5 217.7,397.3 207.5,398 195.8,398 179.5,396.9 162.2,394.3 145.7,390.3 129.9,385 116.8,379.5 
	103.8,372.8 89.7,364.1 75.9,353.9 66.2,344.9 "/>
</svg>
