<?xml version="1.0" encoding="utf-8"?>
<!-- Generator: Adobe Illustrator 18.0.0, SVG Export Plug-In . SVG Version: 6.00 Build 0)  -->
<!DOCTYPE svg PUBLIC "-//W3C//DTD SVG 1.1//EN" "http://www.w3.org/Graphics/SVG/1.1/DTD/svg11.dtd">
<svg version="1.1" id="Layer_1" xmlns="http://www.w3.org/2000/svg" xmlns:xlink="http://www.w3.org/1999/xlink" x="0px" y="0px"
	 viewBox="0 0 40 38.6" enable-background="new 0 0 40 38.6" xml:space="preserve">
<path fill="#DFA22F" d="M25.7,3c-0.6-1.7-2.4-2.7-4.2-2.1c-1.7,0.6-2.7,2.4-2.1,4.2L28,31.4c0.6,1.6,2.3,2.5,4,2.1
	c1.8-0.5,2.8-2.4,2.3-4.1L25.7,3"/>
<path fill="#3CB187" d="M12.4,7.3C11.9,5.6,10,4.6,8.3,5.2C6.5,5.7,5.6,7.6,6.1,9.4l8.6,26.4c0.6,1.6,2.3,2.5,4,2.1
	c1.8-0.5,2.8-2.4,2.3-4.1L12.4,7.3"/>
<path fill="#CE1E5B" d="M36.5,24.8c1.7-0.6,2.7-2.4,2.1-4.2c-0.6-1.7-2.4-2.7-4.2-2.1L8.1,27.1c-1.6,0.6-2.5,2.3-2.1,4
	c0.5,1.8,2.4,2.8,4.1,2.3L36.5,24.8"/>
<path fill="#392538" d="M13.6,32.3l6.3-2l-2-6.3l-6.3,2L13.6,32.3"/>
<path fill="#BB242A" d="M26.9,28c2.4-0.8,4.6-1.5,6.3-2l-2-6.3l-6.3,2L26.9,28"/>
<path fill="#72C5CD" d="M32.2,11.6c1.7-0.6,2.7-2.4,2.1-4.2c-0.6-1.7-2.4-2.7-4.2-2.1L3.8,13.8c-1.6,0.6-2.5,2.3-2.1,4
	c0.5,1.8,2.4,2.8,4.1,2.3L32.2,11.6"/>
<path fill="#248C73" d="M9.3,19c1.7-0.6,3.9-1.3,6.3-2c-0.8-2.4-1.5-4.6-2-6.3l-6.3,2L9.3,19"/>
<path fill="#62803A" d="M22.5,14.7l6.3-2c-0.7-2.1-1.4-4.2-2-6.3l-6.3,2L22.5,14.7"/>
<path fill="#DFA22F" d="M25.7,3c-0.6-1.7-2.4-2.7-4.2-2.1c-1.7,0.6-2.7,2.4-2.1,4.2L28,31.4c0.6,1.6,2.3,2.5,4,2.1
	c1.8-0.5,2.8-2.4,2.3-4.1L25.7,3"/>
<path fill="#3CB187" d="M12.4,7.3C11.9,5.6,10,4.6,8.3,5.2C6.5,5.7,5.6,7.6,6.1,9.4l8.6,26.4c0.6,1.6,2.3,2.5,4,2.1
	c1.8-0.5,2.8-2.4,2.3-4.1L12.4,7.3"/>
<path fill="#CE1E5B" d="M36.5,24.8c1.7-0.6,2.7-2.4,2.1-4.2c-0.6-1.7-2.4-2.7-4.2-2.1L8.1,27.1c-1.6,0.6-2.5,2.3-2.1,4
	c0.5,1.8,2.4,2.8,4.1,2.3L36.5,24.8"/>
<path fill="#392538" d="M13.6,32.3l6.3-2l-2-6.3l-6.3,2L13.6,32.3"/>
<path fill="#BB242A" d="M26.9,28c2.4-0.8,4.6-1.5,6.3-2l-2-6.3l-6.3,2L26.9,28"/>
<path fill="#72C5CD" d="M32.2,11.6c1.7-0.6,2.7-2.4,2.1-4.2c-0.6-1.7-2.4-2.7-4.2-2.1L3.8,13.8c-1.6,0.6-2.5,2.3-2.1,4
	c0.5,1.8,2.4,2.8,4.1,2.3L32.2,11.6"/>
<path fill="#248C73" d="M9.3,19c1.7-0.6,3.9-1.3,6.3-2c-0.8-2.4-1.5-4.6-2-6.3l-6.3,2L9.3,19"/>
<path fill="#62803A" d="M22.5,14.7l6.3-2c-0.7-2.1-1.4-4.2-2-6.3l-6.3,2L22.5,14.7"/>
<path fill="#DFA22F" d="M25.7,3c-0.6-1.7-2.4-2.7-4.2-2.1c-1.7,0.6-2.7,2.4-2.1,4.2L28,31.4c0.6,1.6,2.3,2.5,4,2.1
	c1.8-0.5,2.8-2.4,2.3-4.1L25.7,3"/>
<path fill="#3CB187" d="M12.4,7.3C11.9,5.6,10,4.6,8.3,5.2C6.5,5.7,5.6,7.6,6.1,9.4l8.6,26.4c0.6,1.6,2.3,2.5,4,2.1
	c1.8-0.5,2.8-2.4,2.3-4.1L12.4,7.3"/>
<path fill="#CE1E5B" d="M36.5,24.8c1.7-0.6,2.7-2.4,2.1-4.2c-0.6-1.7-2.4-2.7-4.2-2.1L8.1,27.1c-1.6,0.6-2.5,2.3-2.1,4
	c0.5,1.8,2.4,2.8,4.1,2.3L36.5,24.8"/>
<path fill="#392538" d="M13.6,32.3l6.3-2l-2-6.3l-6.3,2L13.6,32.3"/>
<path fill="#BB242A" d="M26.9,28c2.4-0.8,4.6-1.5,6.3-2l-2-6.3l-6.3,2L26.9,28"/>
<path fill="#72C5CD" d="M32.2,11.6c1.7-0.6,2.7-2.4,2.1-4.2c-0.6-1.7-2.4-2.7-4.2-2.1L3.8,13.8c-1.6,0.6-2.5,2.3-2.1,4
	c0.5,1.8,2.4,2.8,4.1,2.3L32.2,11.6"/>
<path fill="#248C73" d="M9.3,19c1.7-0.6,3.9-1.3,6.3-2c-0.8-2.4-1.5-4.6-2-6.3l-6.3,2L9.3,19"/>
<path fill="#62803A" d="M22.5,14.7l6.3-2c-0.7-2.1-1.4-4.2-2-6.3l-6.3,2L22.5,14.7"/>
</svg>
